<svg width="216" height="216" viewBox="0 0 216 216" fill="none" xmlns="http://www.w3.org/2000/svg">
<g clip-path="url(#clip0)">
<path d="M175.427 53.8658C175.427 68.3699 193.747 75.9447 194.527 76.2602C195.326 76.5712 196.125 76.5678 196.923 76.2505C197.694 75.9316 215.804 68.2712 215.999 53.9089C216.09 47.1627 210.889 40.7843 203.894 40.7843C200.801 40.7843 197.902 42.0512 195.713 44.2184C193.524 42.0512 190.625 40.7843 187.531 40.7843C180.857 40.7843 175.427 46.6526 175.427 53.8658V53.8658ZM192.774 51.033C193.811 53.638 197.616 53.638 198.653 51.033C199.602 48.6511 201.659 47.1125 203.895 47.1125C207.394 47.1125 209.716 50.5816 209.671 53.8232C209.557 62.2848 199.278 68.083 195.708 69.8427C192.133 68.0936 181.756 62.2865 181.756 53.8663C181.756 50.1424 184.347 47.1129 187.532 47.1129C189.767 47.1125 191.825 48.6515 192.774 51.033Z" fill="white"/>
<path d="M174.617 24.783C175.416 25.094 176.215 25.0906 177.013 24.7733C177.532 24.5586 189.723 19.3999 189.857 9.51539C189.923 4.6305 186.06 0 181.006 0C179.093 0 177.283 0.65475 175.803 1.80436C174.322 0.65475 172.512 0 170.599 0C165.719 0 161.749 4.24912 161.749 9.47194C161.749 19.4649 174.091 24.5704 174.617 24.783V24.783ZM170.599 6.32812C171.547 6.32812 172.435 7.02211 172.863 8.0962C173.901 10.7013 177.705 10.7013 178.743 8.0962C179.17 7.02211 180.059 6.32812 181.007 6.32812C182.646 6.60614 183.487 7.63973 183.529 9.42933C183.474 13.5177 178.702 16.8476 175.811 18.3495C173.384 17.0918 168.077 13.8405 168.077 9.47236C168.077 7.76798 169.232 6.32812 170.599 6.32812V6.32812Z" fill="white"/>
<path d="M165.125 101.35C165.924 101.66 166.723 101.657 167.521 101.34C168.04 101.125 180.23 95.966 180.365 86.0815C180.43 81.197 176.568 76.5665 171.514 76.5665C169.6 76.5665 167.791 77.2213 166.311 78.3709C164.83 77.2208 163.02 76.5665 161.107 76.5665C156.227 76.5665 152.257 80.8156 152.257 86.0385C152.257 96.031 164.6 101.137 165.125 101.35V101.35ZM161.107 82.8946C162.055 82.8946 162.944 83.5886 163.371 84.6627C164.409 87.2678 168.213 87.2678 169.251 84.6627C169.679 83.5886 170.567 82.8946 171.515 82.8946C173.154 83.1727 173.995 84.2062 174.037 85.9958C173.982 90.0842 169.211 93.4141 166.319 94.9164C163.892 93.6588 158.585 90.4074 158.585 86.0389C158.585 84.3341 159.74 82.8946 161.107 82.8946Z" fill="white"/>
<mask id="path-4-inside-1" fill="white">
<path d="M164.544 111.919C153.402 111.919 143.077 115.52 134.644 121.631L138.337 92.6519L142.03 63.6729C147.631 63.3092 152.077 58.6391 152.077 52.9475C152.077 48.8081 149.724 45.2099 146.286 43.4144C148.203 40.0879 149.146 36.2995 148.975 32.3883C148.502 21.5183 139.502 12.95 128.576 12.6171C127.95 5.29844 121.51 -0.306165 113.976 0.0131944C108.353 0.254085 103.623 3.7392 101.59 8.54393C99.4448 7.45845 97.0253 6.91423 94.5603 7.02054C88.5511 7.27788 83.541 11.2304 81.7881 16.5958C79.4593 16.1069 76.9386 16.0162 74.5757 16.3246C72.4781 10.8942 66.9895 7.16524 60.8449 7.4344C57.5218 7.57657 54.4463 8.83334 52.0476 10.9706C48.3722 8.60552 44.0387 7.42765 39.5748 7.61918C33.9533 7.85965 28.7575 10.2268 24.9446 14.2835C21.6228 17.818 19.6944 22.265 19.3957 26.9917C18.4583 26.8436 17.5002 26.7888 16.5383 26.8301C12.8026 26.99 9.34791 28.5644 6.81159 31.2632C4.25503 33.983 2.93583 37.5162 3.09656 41.2114C3.15014 42.4479 3.36783 43.6503 3.74287 44.8066C1.45336 46.7797 0 49.697 0 52.9488C0 58.6399 4.44656 63.3096 10.0474 63.6733L24.7906 179.356C25.5644 185.43 30.7935 190.01 36.9533 190.01H73.6138V202.751C73.6138 206.676 76.8074 209.87 80.7325 209.87H140.337C147.557 213.779 155.798 216 164.544 216C169.23 216 173.88 215.36 178.365 214.098C182.177 213.025 180.636 206.886 176.651 208.006C172.723 209.112 168.65 209.672 164.544 209.672C139.661 209.672 119.417 189.166 119.417 163.959C119.417 138.753 139.661 118.247 164.544 118.247C189.428 118.247 209.672 138.753 209.672 163.959C209.672 178.771 202.535 192.73 190.582 201.299C187.364 203.606 190.905 208.854 194.269 206.442C207.876 196.687 216 180.806 216 163.959C216 135.264 192.917 111.919 164.544 111.919ZM10.7498 57.3705C8.31178 57.3705 6.32812 55.3864 6.32812 52.948C6.32812 50.5099 8.31178 48.5263 10.7498 48.5263H35.8564C37.6038 48.5263 39.0205 47.1096 39.0205 45.3622C39.0205 43.6148 37.6038 42.1982 35.8564 42.1982C35.8564 42.1982 9.98198 42.2197 9.60609 42.2598C8.11097 35.7874 15.6937 30.959 21.2026 34.2559C23.5022 35.6321 26.4385 33.5801 25.9352 30.9472C25.0982 26.5614 26.5001 21.8676 29.5549 18.6179C32.2296 15.7719 35.8838 14.1114 39.8448 13.9418C43.7387 13.7735 47.4812 15.0796 50.379 17.6155C52.1054 18.817 53.6638 18.6289 55.0538 17.0502C56.4469 15.0627 58.6562 13.8621 61.1149 13.757C65.1607 13.5769 68.6699 16.4959 69.1073 20.386C69.3132 22.2169 71.234 23.6205 73.1312 23.072C76.3881 22.1296 79.939 22.3017 83.0874 23.5876C85.1179 24.4178 87.4163 22.8965 87.4475 20.7036C87.504 16.7507 90.747 13.5174 94.8303 13.3428C97.3025 13.2377 99.6996 14.3059 101.238 16.2022C103.113 18.5149 106.973 17.0612 106.857 14.0857C106.697 9.99349 110.012 6.51682 114.246 6.33541C118.508 6.15232 122.111 9.35055 122.29 13.463C122.316 14.0578 122.261 14.659 122.123 15.3015C121.665 17.4252 123.524 19.4144 125.674 19.0988C126.203 19.0212 126.733 18.971 127.25 18.9491C135.398 18.5976 142.308 24.7519 142.653 32.6634C142.804 36.1455 141.673 39.4923 139.458 42.1977H52.7162C50.9688 42.1977 49.5522 43.6144 49.5522 45.3618C49.5522 47.1092 50.9688 48.5259 52.7162 48.5259H141.327C143.765 48.5259 145.749 50.5099 145.749 52.9484C145.749 55.3864 143.765 57.3701 141.327 57.3701L10.7498 57.3705ZM103.637 63.6986L101.161 89.5975C98.3867 88.1623 95.3357 87.3979 92.197 87.3979C85.8288 87.3979 79.9305 90.5619 76.0375 95.7915C72.1444 90.5619 66.2462 87.3979 59.878 87.3979C56.6717 87.3979 53.6334 88.1952 50.9178 89.6157L48.4405 63.6986H103.637ZM36.9533 183.682C33.9706 183.682 31.4407 181.478 31.0681 178.557L16.4299 63.6986H42.0837L45.0039 94.2499C41.3277 98.3552 39.0555 103.967 39.0555 110.151C39.0555 119.488 43.2903 127.293 48.8468 133.52C48.8135 133.76 48.8042 134.007 48.8282 134.258L53.5524 183.682H36.9533ZM92.0763 203.542H80.7325C80.2967 203.542 79.9419 203.187 79.9419 202.751V182.58C79.9419 182.145 80.2967 181.79 80.7325 181.79H92.0763V203.542ZM92.9542 175.462H80.7325C76.8074 175.462 73.6138 178.655 73.6138 182.58V183.682H59.9088L55.7381 140.05C64.7118 147.341 74.1019 151.22 74.8512 151.523C75.6506 151.834 76.4492 151.83 77.2474 151.513C77.9929 151.205 87.3851 147.237 96.3579 139.853L92.9542 175.462ZM76.0219 145.129C70.2156 142.485 45.3832 130.007 45.3832 110.151C45.3832 101.094 51.8856 93.726 59.878 93.726C65.5649 93.726 70.7543 97.5288 73.0979 103.413C74.1352 106.019 77.9397 106.019 78.9771 103.413C81.321 97.5283 86.5101 93.726 92.197 93.726C100.782 93.726 106.802 102.034 106.692 110.108C106.426 129.795 81.7868 142.44 76.0219 145.129ZM110.539 203.542H98.4045V181.79H110.539V203.542ZM131.178 203.542H116.867V183.525C120.002 191.312 124.95 198.164 131.178 203.542ZM127.481 127.776C127.475 127.82 127.475 127.865 127.471 127.909C118.57 137.269 113.088 149.978 113.088 163.959C113.088 167.911 113.528 171.76 114.357 175.461H99.3106L103.358 133.124C108.769 126.958 112.896 119.29 113.02 110.193C113.1 104.226 110.943 98.4447 107.08 94.1787L109.994 63.6982H135.648L127.481 127.776Z"/>
</mask>
<path d="M164.544 111.919C153.402 111.919 143.077 115.52 134.644 121.631L138.337 92.6519L142.03 63.6729C147.631 63.3092 152.077 58.6391 152.077 52.9475C152.077 48.8081 149.724 45.2099 146.286 43.4144C148.203 40.0879 149.146 36.2995 148.975 32.3883C148.502 21.5183 139.502 12.95 128.576 12.6171C127.95 5.29844 121.51 -0.306165 113.976 0.0131944C108.353 0.254085 103.623 3.7392 101.59 8.54393C99.4448 7.45845 97.0253 6.91423 94.5603 7.02054C88.5511 7.27788 83.541 11.2304 81.7881 16.5958C79.4593 16.1069 76.9386 16.0162 74.5757 16.3246C72.4781 10.8942 66.9895 7.16524 60.8449 7.4344C57.5218 7.57657 54.4463 8.83334 52.0476 10.9706C48.3722 8.60552 44.0387 7.42765 39.5748 7.61918C33.9533 7.85965 28.7575 10.2268 24.9446 14.2835C21.6228 17.818 19.6944 22.265 19.3957 26.9917C18.4583 26.8436 17.5002 26.7888 16.5383 26.8301C12.8026 26.99 9.34791 28.5644 6.81159 31.2632C4.25503 33.983 2.93583 37.5162 3.09656 41.2114C3.15014 42.4479 3.36783 43.6503 3.74287 44.8066C1.45336 46.7797 0 49.697 0 52.9488C0 58.6399 4.44656 63.3096 10.0474 63.6733L24.7906 179.356C25.5644 185.43 30.7935 190.01 36.9533 190.01H73.6138V202.751C73.6138 206.676 76.8074 209.87 80.7325 209.87H140.337C147.557 213.779 155.798 216 164.544 216C169.23 216 173.88 215.36 178.365 214.098C182.177 213.025 180.636 206.886 176.651 208.006C172.723 209.112 168.65 209.672 164.544 209.672C139.661 209.672 119.417 189.166 119.417 163.959C119.417 138.753 139.661 118.247 164.544 118.247C189.428 118.247 209.672 138.753 209.672 163.959C209.672 178.771 202.535 192.73 190.582 201.299C187.364 203.606 190.905 208.854 194.269 206.442C207.876 196.687 216 180.806 216 163.959C216 135.264 192.917 111.919 164.544 111.919ZM10.7498 57.3705C8.31178 57.3705 6.32812 55.3864 6.32812 52.948C6.32812 50.5099 8.31178 48.5263 10.7498 48.5263H35.8564C37.6038 48.5263 39.0205 47.1096 39.0205 45.3622C39.0205 43.6148 37.6038 42.1982 35.8564 42.1982C35.8564 42.1982 9.98198 42.2197 9.60609 42.2598C8.11097 35.7874 15.6937 30.959 21.2026 34.2559C23.5022 35.6321 26.4385 33.5801 25.9352 30.9472C25.0982 26.5614 26.5001 21.8676 29.5549 18.6179C32.2296 15.7719 35.8838 14.1114 39.8448 13.9418C43.7387 13.7735 47.4812 15.0796 50.379 17.6155C52.1054 18.817 53.6638 18.6289 55.0538 17.0502C56.4469 15.0627 58.6562 13.8621 61.1149 13.757C65.1607 13.5769 68.6699 16.4959 69.1073 20.386C69.3132 22.2169 71.234 23.6205 73.1312 23.072C76.3881 22.1296 79.939 22.3017 83.0874 23.5876C85.1179 24.4178 87.4163 22.8965 87.4475 20.7036C87.504 16.7507 90.747 13.5174 94.8303 13.3428C97.3025 13.2377 99.6996 14.3059 101.238 16.2022C103.113 18.5149 106.973 17.0612 106.857 14.0857C106.697 9.99349 110.012 6.51682 114.246 6.33541C118.508 6.15232 122.111 9.35055 122.29 13.463C122.316 14.0578 122.261 14.659 122.123 15.3015C121.665 17.4252 123.524 19.4144 125.674 19.0988C126.203 19.0212 126.733 18.971 127.25 18.9491C135.398 18.5976 142.308 24.7519 142.653 32.6634C142.804 36.1455 141.673 39.4923 139.458 42.1977H52.7162C50.9688 42.1977 49.5522 43.6144 49.5522 45.3618C49.5522 47.1092 50.9688 48.5259 52.7162 48.5259H141.327C143.765 48.5259 145.749 50.5099 145.749 52.9484C145.749 55.3864 143.765 57.3701 141.327 57.3701L10.7498 57.3705ZM103.637 63.6986L101.161 89.5975C98.3867 88.1623 95.3357 87.3979 92.197 87.3979C85.8288 87.3979 79.9305 90.5619 76.0375 95.7915C72.1444 90.5619 66.2462 87.3979 59.878 87.3979C56.6717 87.3979 53.6334 88.1952 50.9178 89.6157L48.4405 63.6986H103.637ZM36.9533 183.682C33.9706 183.682 31.4407 181.478 31.0681 178.557L16.4299 63.6986H42.0837L45.0039 94.2499C41.3277 98.3552 39.0555 103.967 39.0555 110.151C39.0555 119.488 43.2903 127.293 48.8468 133.52C48.8135 133.76 48.8042 134.007 48.8282 134.258L53.5524 183.682H36.9533ZM92.0763 203.542H80.7325C80.2967 203.542 79.9419 203.187 79.9419 202.751V182.58C79.9419 182.145 80.2967 181.79 80.7325 181.79H92.0763V203.542ZM92.9542 175.462H80.7325C76.8074 175.462 73.6138 178.655 73.6138 182.58V183.682H59.9088L55.7381 140.05C64.7118 147.341 74.1019 151.22 74.8512 151.523C75.6506 151.834 76.4492 151.83 77.2474 151.513C77.9929 151.205 87.3851 147.237 96.3579 139.853L92.9542 175.462ZM76.0219 145.129C70.2156 142.485 45.3832 130.007 45.3832 110.151C45.3832 101.094 51.8856 93.726 59.878 93.726C65.5649 93.726 70.7543 97.5288 73.0979 103.413C74.1352 106.019 77.9397 106.019 78.9771 103.413C81.321 97.5283 86.5101 93.726 92.197 93.726C100.782 93.726 106.802 102.034 106.692 110.108C106.426 129.795 81.7868 142.44 76.0219 145.129ZM110.539 203.542H98.4045V181.79H110.539V203.542ZM131.178 203.542H116.867V183.525C120.002 191.312 124.95 198.164 131.178 203.542ZM127.481 127.776C127.475 127.82 127.475 127.865 127.471 127.909C118.57 137.269 113.088 149.978 113.088 163.959C113.088 167.911 113.528 171.76 114.357 175.461H99.3106L103.358 133.124C108.769 126.958 112.896 119.29 113.02 110.193C113.1 104.226 110.943 98.4447 107.08 94.1787L109.994 63.6982H135.648L127.481 127.776Z" fill="white" stroke="white" stroke-width="4" mask="url(#path-4-inside-1)"/>
<path d="M180.441 163.959C180.441 155.109 173.31 147.909 164.544 147.909C155.778 147.909 148.647 155.109 148.647 163.959C148.647 172.81 155.778 180.01 164.544 180.01C173.31 180.01 180.441 172.81 180.441 163.959ZM164.544 173.682C159.268 173.682 154.976 169.32 154.976 163.959C154.976 158.598 159.268 154.237 164.544 154.237C169.821 154.237 174.113 158.598 174.113 163.959C174.113 169.32 169.82 173.682 164.544 173.682Z" fill="white"/>
<path d="M174.083 133.098C174.083 127.76 169.775 123.416 164.479 123.416C159.183 123.416 154.875 127.759 154.875 133.098C154.875 138.437 159.183 142.78 164.479 142.78C169.775 142.78 174.083 138.437 174.083 133.098ZM161.203 133.098C161.203 131.249 162.673 129.744 164.479 129.744C166.285 129.744 167.755 131.249 167.755 133.098C167.755 134.948 166.285 136.452 164.479 136.452C162.673 136.452 161.203 134.948 161.203 133.098Z" fill="white"/>
<path d="M186.059 132.408C183.503 132.408 181.052 133.444 179.254 135.258C175.532 139.025 175.532 145.155 179.254 148.923C182.926 152.639 189.183 152.647 192.864 148.923C196.586 145.156 196.586 139.026 192.864 135.258C191.048 133.42 188.631 132.408 186.059 132.408ZM188.362 144.476C186.827 145.768 185.291 145.768 183.756 144.476C182.457 143.16 182.457 141.021 183.756 139.705C185.291 138.413 186.827 138.413 188.362 139.705C189.661 141.021 189.661 143.161 188.362 144.476V144.476Z" fill="white"/>
<path d="M185.432 163.893C185.432 169.232 189.74 173.575 195.036 173.575C200.331 173.575 204.64 169.232 204.64 163.893C204.64 158.555 200.332 154.211 195.036 154.211C189.74 154.211 185.432 158.555 185.432 163.893ZM195.036 160.539C196.842 160.539 198.312 162.044 198.312 163.893C198.312 165.743 196.842 167.247 195.036 167.247C193.229 167.247 191.76 165.743 191.76 163.893C191.76 162.044 193.229 160.539 195.036 160.539Z" fill="white"/>
<path d="M192.955 178.902C189.284 175.186 183.027 175.176 179.347 178.902C175.624 182.669 175.624 188.8 179.347 192.567C183.068 196.333 189.235 196.333 192.955 192.567C196.678 188.8 196.678 182.669 192.955 178.902ZM188.454 188.12C186.919 189.411 185.383 189.411 183.848 188.12C182.549 186.805 182.549 184.665 183.848 183.349C185.383 182.058 186.918 182.058 188.454 183.349C189.753 184.665 189.753 186.805 188.454 188.12V188.12Z" fill="white"/>
<path d="M155.005 194.82C155.005 200.159 159.313 204.502 164.609 204.502C169.905 204.502 174.213 200.159 174.213 194.82C174.213 189.481 169.905 185.138 164.609 185.138C159.313 185.138 155.005 189.481 155.005 194.82ZM167.885 194.82C167.885 196.669 166.416 198.174 164.609 198.174C162.803 198.174 161.333 196.67 161.333 194.82C161.333 192.971 162.803 191.466 164.609 191.466C166.416 191.466 167.885 192.971 167.885 194.82Z" fill="white"/>
<path d="M143.03 195.51C145.602 195.51 148.019 194.498 149.834 192.661C153.556 188.893 153.556 182.763 149.834 178.995C148.018 177.158 145.602 176.146 143.03 176.146C140.473 176.152 138.022 177.177 136.225 178.995C132.502 182.763 132.502 188.893 136.225 192.661C138.04 194.498 140.457 195.51 143.03 195.51V195.51ZM140.727 183.443C142.262 182.151 143.797 182.151 145.333 183.443C146.632 184.758 146.632 186.897 145.333 188.213C144.16 189.385 141.876 189.376 140.727 188.213C139.427 186.898 139.427 184.758 140.727 183.443V183.443Z" fill="white"/>
<path d="M124.449 164.025C124.449 169.363 128.757 173.707 134.053 173.707C139.349 173.707 143.657 169.364 143.657 164.025C143.657 158.686 139.349 154.343 134.053 154.343C128.757 154.343 124.449 158.687 124.449 164.025ZM134.052 160.672C135.859 160.672 137.328 162.176 137.328 164.025C137.328 165.875 135.859 167.379 134.052 167.379C132.246 167.379 130.777 165.875 130.777 164.025C130.777 162.176 132.246 160.672 134.052 160.672Z" fill="white"/>
<path d="M142.938 151.866C145.51 151.866 147.927 150.854 149.742 149.017C153.464 145.249 153.464 139.119 149.742 135.351C147.926 133.514 145.51 132.502 142.938 132.502C140.382 132.508 137.93 133.533 136.133 135.351C132.411 139.119 132.411 145.249 136.133 149.017C137.948 150.854 140.365 151.866 142.938 151.866V151.866ZM140.634 139.799C142.169 138.507 143.705 138.507 145.24 139.799C146.54 141.114 146.54 143.254 145.24 144.569C143.705 145.861 142.17 145.861 140.635 144.569C139.335 143.254 139.335 141.114 140.634 139.799V139.799Z" fill="white"/>
</g>
<defs>
<clipPath id="clip0">
<rect width="216" height="216" fill="white"/>
</clipPath>
</defs>
</svg>
